<?xml version="1.0" encoding="UTF-8" standalone="no" ?>
<!DOCTYPE svg PUBLIC "-//W3C//DTD SVG 1.1//EN" "http://www.w3.org/Graphics/SVG/1.1/DTD/svg11.dtd">
<svg xmlns="http://www.w3.org/2000/svg" xmlns:xlink="http://www.w3.org/1999/xlink" version="1.1" width="1000" height="400" viewBox="0 0 1000 400" xml:space="preserve">
<desc>Created with Fabric.js 5.2.4</desc>
<defs>
</defs>
<g transform="matrix(1 0 0 1 500 200)" id="119eb29a-bb2e-4935-9e8b-4ae02d9d0156"  >
<rect style="stroke: none; stroke-width: 1; stroke-dasharray: none; stroke-linecap: butt; stroke-dashoffset: 0; stroke-linejoin: miter; stroke-miterlimit: 4; fill: rgb(18,18,18); fill-rule: nonzero; opacity: 1; visibility: hidden;" vector-effect="non-scaling-stroke"  x="-500" y="-200" rx="0" ry="0" width="1000" height="400" />
</g>
<g transform="matrix(Infinity NaN NaN Infinity 0 0)" id="5a224e19-2f11-4f4b-b80f-6cb390dc5c84"  >
</g>
<g transform="matrix(7.48 0 0 7.48 500 200)"  >
<g style="" vector-effect="non-scaling-stroke"   >
		<g transform="matrix(1 0 0 1 41.08 0)"  >
<rect style="stroke: none; stroke-width: 1; stroke-dasharray: none; stroke-linecap: butt; stroke-dashoffset: 0; stroke-linejoin: miter; stroke-miterlimit: 4; fill: rgb(59,130,246); fill-rule: nonzero; opacity: 1;" vector-effect="non-scaling-stroke"  x="-26" y="-24.5" rx="6" ry="6" width="52" height="49" />
</g>
		<g transform="matrix(1 0 0 1 41.48 0.36)"  >
<path style="stroke: none; stroke-width: 1; stroke-dasharray: none; stroke-linecap: butt; stroke-dashoffset: 0; stroke-linejoin: miter; stroke-miterlimit: 4; fill: rgb(255,255,255); fill-rule: nonzero; opacity: 1;" vector-effect="non-scaling-stroke"  transform=" translate(-110.4, -25.86)" d="M 115.202 24.81 L 125.807 39.72 L 115.16 39.72 L 109.826 31.614 L 104.807 39.72 L 95 39.72 L 104.807 24.81 L 95.882 12 L 106.256 12 L 110.162 18.552 L 114.047 12 L 123.938 12 L 115.202 24.81 Z" stroke-linecap="round" />
</g>
		<g transform="matrix(1 0 0 1 -27.63 0.44)"  >
<path style="stroke: none; stroke-width: 1; stroke-dasharray: none; stroke-linecap: butt; stroke-dashoffset: 0; stroke-linejoin: miter; stroke-miterlimit: 4; fill: rgb(255,255,255); fill-rule: nonzero; opacity: 1;" vector-effect="non-scaling-stroke"  transform=" translate(-41.3, -25.94)" d="M 17.0028 10.4545 L 17.0028 41 L 8.71023 41 L 8.71023 18.0909 L 8.53125 18.0909 L 1.84943 22.0881 L 1.84943 15.0483 L 9.36648 10.4545 L 17.0028 10.4545 Z M 36.5785 41.8352 C 33.8043 41.8253 31.408 41.1839 29.3896 39.9112 C 27.3711 38.6385 25.815 36.804 24.7212 34.4077 C 23.6275 32.0114 23.0856 29.1378 23.0955 25.7869 C 23.1055 22.4261 23.6523 19.5724 24.7362 17.2259 C 25.8299 14.8793 27.381 13.0945 29.3896 11.8714 C 31.408 10.6484 33.8043 10.0369 36.5785 10.0369 C 39.3526 10.0369 41.7489 10.6534 43.7674 11.8864 C 45.7859 13.1094 47.342 14.8942 48.4357 17.2408 C 49.5295 19.5874 50.0714 22.4361 50.0614 25.7869 C 50.0614 29.1577 49.5146 32.0412 48.4208 34.4375 C 47.3271 36.8338 45.771 38.6683 43.7525 39.9411 C 41.744 41.2038 39.3526 41.8352 36.5785 41.8352 Z M 36.5785 35.0938 C 38.0103 35.0938 39.1836 34.348 40.0984 32.8565 C 41.0231 31.3551 41.4805 28.9986 41.4705 25.7869 C 41.4705 23.6889 41.2617 21.9737 40.8441 20.6413 C 40.4265 19.3089 39.8498 18.3246 39.114 17.6882 C 38.3782 17.0419 37.533 16.7188 36.5785 16.7188 C 35.1467 16.7188 33.9783 17.4446 33.0735 18.8963 C 32.1687 20.348 31.7063 22.6449 31.6864 25.7869 C 31.6765 27.9247 31.8803 29.6847 32.2979 31.0668 C 32.7156 32.4389 33.2923 33.4531 34.0281 34.1094 C 34.7738 34.7656 35.6239 35.0938 36.5785 35.0938 Z M 67.2582 41.8352 C 64.484 41.8253 62.0877 41.1839 60.0692 39.9112 C 58.0508 38.6385 56.4947 36.804 55.4009 34.4077 C 54.3072 32.0114 53.7653 29.1378 53.7752 25.7869 C 53.7852 22.4261 54.332 19.5724 55.4158 17.2259 C 56.5096 14.8793 58.0607 13.0945 60.0692 11.8714 C 62.0877 10.6484 64.484 10.0369 67.2582 10.0369 C 70.0323 10.0369 72.4286 10.6534 74.4471 11.8864 C 76.4656 13.1094 78.0217 14.8942 79.1154 17.2408 C 80.2092 19.5874 80.7511 22.4361 80.7411 25.7869 C 80.7411 29.1577 80.1942 32.0412 79.1005 34.4375 C 78.0067 36.8338 76.4506 38.6683 74.4322 39.9411 C 72.4237 41.2038 70.0323 41.8352 67.2582 41.8352 Z M 67.2582 35.0938 C 68.69 35.0938 69.8633 34.348 70.7781 32.8565 C 71.7028 31.3551 72.1602 28.9986 72.1502 25.7869 C 72.1502 23.6889 71.9414 21.9737 71.5238 20.6413 C 71.1062 19.3089 70.5295 18.3246 69.7937 17.6882 C 69.0579 17.0419 68.2127 16.7188 67.2582 16.7188 C 65.8264 16.7188 64.658 17.4446 63.7532 18.8963 C 62.8484 20.348 62.386 22.6449 62.3661 25.7869 C 62.3562 27.9247 62.56 29.6847 62.9776 31.0668 C 63.3952 32.4389 63.9719 33.4531 64.7077 34.1094 C 65.4535 34.7656 66.3036 35.0938 67.2582 35.0938 Z" stroke-linecap="round" />
</g>
</g>
</g>
</svg>
